<?xml version="1.0" encoding="UTF-8"?>
<!DOCTYPE svg PUBLIC "-//W3C//DTD SVG 1.1//EN" "http://www.w3.org/Graphics/SVG/1.1/DTD/svg11.dtd">
<!-- Creator: CorelDRAW X7 -->
<svg xmlns="http://www.w3.org/2000/svg" xml:space="preserve" width="8.4666mm" height="8.4666mm" version="1.1" style="shape-rendering:geometricPrecision; text-rendering:geometricPrecision; image-rendering:optimizeQuality; fill-rule:evenodd; clip-rule:evenodd"
viewBox="0 0 847 847"
 xmlns:xlink="http://www.w3.org/1999/xlink">
 <defs>
  <style type="text/css">
   <![CDATA[
    .fil1 {fill:#FEFEFE}
    .fil0 {fill:#5076A6}
   ]]>
  </style>
 </defs>
 <g id="Layer_x0020_1">
  <metadata id="CorelCorpID_0Corel-Layer"/>
  <g id="_335679288">
   <path class="fil0" d="M838 426c0,225 -182,408 -408,408 -225,0 -408,-183 -408,-408 0,-225 183,-408 408,-408 226,0 408,183 408,408z"/>
   <path class="fil1" d="M666 315c-7,-5 -32,-5 -57,-5 -26,0 -52,0 -58,3 -5,2 -18,32 -34,62 -18,35 -40,68 -55,68 -18,0 -14,-57 -13,-99 1,-28 -3,-36 -7,-39 -10,-7 -37,-13 -37,-13 0,0 -80,-6 -91,28 15,2 41,-2 31,105 0,5 -12,49 -50,-11 -9,-14 -45,-104 -57,-104 -41,-1 -82,-3 -96,5 -14,8 17,69 70,152 43,67 88,119 167,133 15,1 53,3 65,-3 8,-4 -2,-62 26,-68 13,-2 60,61 79,68 11,4 35,6 60,5 26,-1 57,3 60,-15 6,-41 -81,-93 -84,-118 -2,-18 32,-51 50,-75 21,-31 44,-67 31,-79z"/>
  </g>
 </g>
</svg>
