<?xml version="1.0" encoding="UTF-8"?>
<!DOCTYPE svg PUBLIC "-//W3C//DTD SVG 1.1//EN" "http://www.w3.org/Graphics/SVG/1.1/DTD/svg11.dtd">
<!-- Creator: CorelDRAW X7 -->
<svg xmlns="http://www.w3.org/2000/svg" xml:space="preserve" width="8.4666mm" height="8.4666mm" version="1.1" style="shape-rendering:geometricPrecision; text-rendering:geometricPrecision; image-rendering:optimizeQuality; fill-rule:evenodd; clip-rule:evenodd"
viewBox="0 0 847 847"
 xmlns:xlink="http://www.w3.org/1999/xlink">
 <defs>
  <style type="text/css">
   <![CDATA[
    .fil1 {fill:#FEFEFE}
    .fil0 {fill:#DF2C32}
   ]]>
  </style>
 </defs>
 <g id="Layer_x0020_1">
  <metadata id="CorelCorpID_0Corel-Layer"/>
  <g id="_338102952">
   <path class="fil0" d="M840 421c0,230 -187,416 -416,416 -230,0 -417,-186 -417,-416 0,-230 187,-416 417,-416 229,0 416,186 416,416z"/>
   <path class="fil1" d="M600 413c-3,0 -5,0 -9,0 0,-1 0,-1 0,-2 0,-2 0,-4 0,-6 0,-11 1,-23 0,-34 0,-2 -2,-6 -3,-6 -10,0 -21,0 -32,0 0,14 0,27 0,40 0,3 0,5 0,8 -16,0 -31,0 -48,0 0,4 0,6 0,8 1,9 1,18 2,26 8,1 16,1 25,1 7,0 14,0 22,0 0,17 0,32 0,47 12,0 22,0 34,0 0,-15 0,-31 0,-47 17,0 32,0 48,0 0,-9 0,-18 0,-26 0,-3 0,-6 0,-9 -13,0 -26,0 -39,0z"/>
   <path class="fil1" d="M465 409c-30,0 -60,0 -90,0 -8,0 -17,0 -25,0 -2,0 -5,2 -5,4 0,17 0,34 0,52 25,0 48,0 73,0 -1,4 -2,6 -2,9 -12,33 -46,49 -83,43 -45,-7 -74,-50 -66,-95 1,-7 3,-13 6,-19 15,-33 53,-53 90,-45 13,3 24,9 34,18 13,-14 26,-27 40,-41 -1,0 -2,-1 -3,-2 -33,-27 -70,-37 -111,-31 -60,10 -103,57 -113,112 -4,23 -2,48 8,72 22,59 81,94 144,87 30,-3 58,-14 79,-37 31,-33 39,-74 34,-118 0,-8 -3,-9 -10,-9z"/>
  </g>
 </g>
</svg>
