<?xml version="1.0" encoding="UTF-8"?>
<!DOCTYPE svg PUBLIC "-//W3C//DTD SVG 1.1//EN" "http://www.w3.org/Graphics/SVG/1.1/DTD/svg11.dtd">
<!-- Creator: CorelDRAW X7 -->
<svg xmlns="http://www.w3.org/2000/svg" xml:space="preserve" width="8.4666mm" height="8.4666mm" version="1.1" style="shape-rendering:geometricPrecision; text-rendering:geometricPrecision; image-rendering:optimizeQuality; fill-rule:evenodd; clip-rule:evenodd"
viewBox="0 0 847 847"
 xmlns:xlink="http://www.w3.org/1999/xlink">
 <defs>
  <style type="text/css">
   <![CDATA[
    .fil1 {fill:#FEFEFE}
    .fil0 {fill:#4FC2ED}
   ]]>
  </style>
 </defs>
 <g id="Layer_x0020_1">
  <metadata id="CorelCorpID_0Corel-Layer"/>
  <g id="_337452368">
   <path class="fil0" d="M834 421c0,225 -183,408 -408,408 -225,0 -408,-183 -408,-408 0,-225 183,-408 408,-408 225,0 408,183 408,408z"/>
   <path class="fil1" d="M549 522c-11,15 -26,26 -47,35 -20,8 -44,12 -72,12 -33,0 -61,-6 -82,-17 -16,-8 -29,-19 -38,-33 -10,-14 -15,-28 -15,-41 0,-8 3,-16 10,-22 6,-5 14,-8 24,-8 8,0 14,2 20,7 5,4 10,11 14,19 4,9 8,17 13,23 4,6 11,11 19,15 8,4 20,6 34,6 19,0 34,-4 46,-12 11,-8 17,-17 17,-29 0,-9 -3,-16 -9,-21 -6,-6 -14,-10 -24,-13 -11,-4 -25,-7 -43,-11 -24,-5 -44,-11 -60,-18 -17,-7 -30,-16 -40,-28 -3,-4 -6,-8 -8,-13 -4,-10 -7,-20 -7,-33 0,-17 6,-32 16,-46 10,-13 25,-23 45,-30 19,-7 42,-11 67,-11 21,0 39,3 54,7 15,5 28,11 38,19 10,8 18,16 23,25 4,8 7,17 7,26 0,8 -3,15 -10,22 -6,6 -14,9 -23,9 -9,0 -15,-2 -20,-6 -4,-4 -9,-9 -14,-18 -6,-11 -13,-19 -21,-25 -7,-6 -20,-9 -38,-9 -17,0 -30,3 -40,10 -10,6 -14,13 -14,22 0,5 1,9 4,13 4,4 8,7 14,10 6,3 12,6 19,7 1,1 2,1 4,1 6,2 15,4 28,7 18,4 35,8 50,13 16,5 29,11 40,18 11,7 20,16 26,27 6,11 9,24 9,40 0,19 -5,36 -16,51zm107 -60c4,-16 5,-32 5,-49 0,-6 0,-11 0,-17 -9,-118 -109,-210 -230,-210 -14,0 -27,1 -40,3 -20,-13 -44,-20 -71,-20 -73,0 -133,59 -133,132 0,24 6,47 18,66 -2,9 -3,17 -4,25 0,7 -1,14 -1,21 0,126 104,227 231,227 14,0 28,-1 42,-3 19,9 40,15 63,15 74,0 134,-59 134,-132 0,-21 -5,-41 -14,-58z"/>
  </g>
 </g>
</svg>
