<?xml version="1.0" encoding="UTF-8"?>
<!DOCTYPE svg PUBLIC "-//W3C//DTD SVG 1.1//EN" "http://www.w3.org/Graphics/SVG/1.1/DTD/svg11.dtd">
<!-- Creator: CorelDRAW X7 -->
<svg xmlns="http://www.w3.org/2000/svg" xml:space="preserve" width="8mm" height="6mm" version="1.1" style="shape-rendering:geometricPrecision; text-rendering:geometricPrecision; image-rendering:optimizeQuality; fill-rule:evenodd; clip-rule:evenodd"
viewBox="0 0 800 600"
 xmlns:xlink="http://www.w3.org/1999/xlink">
 <defs>
  <style type="text/css">
   <![CDATA[
    .fil0 {fill:#4E2C76}
   ]]>
  </style>
 </defs>
 <g id="Layer_x0020_1">
  <metadata id="CorelCorpID_0Corel-Layer"/>
  <path class="fil0" d="M482 298l174 -174c27,-27 27,-71 0,-98 -27,-27 -71,-27 -98,0l-174 174 -174 -174c-27,-27 -71,-27 -98,0 -27,27 -27,71 0,98l174 174 -174 174c-27,27 -27,71 0,98 14,14 32,20 49,20 18,0 36,-6 49,-20l174 -174 174 174c14,14 32,20 49,20 18,0 36,-6 49,-20 27,-27 27,-71 0,-98l-174 -174z"/>
 </g>
</svg>
